<svg width="98" height="40" viewBox="0 0 98 40" fill="none" xmlns="http://www.w3.org/2000/svg">
<path d="M51.3837 16.8889V4.44446H55.5792V13.6356H61.197V16.8889H51.3837Z" fill="black"/>
<path d="M67.3692 17.0667C66.267 17.0667 65.2892 16.8533 64.4359 16.4267C63.5944 15.9882 62.9307 15.3896 62.4448 14.6311C61.9589 13.8726 61.7159 13.0015 61.7159 12.0178C61.7159 11.0341 61.9589 10.163 62.4448 9.40446C62.9307 8.64594 63.5944 8.05335 64.4359 7.62668C65.2892 7.20001 66.267 6.98668 67.3692 6.98668C68.4715 6.98668 69.4492 7.20001 70.3026 7.62668C71.1559 8.05335 71.8196 8.64594 72.2937 9.40446C72.7796 10.163 73.0226 11.0341 73.0226 12.0178C73.0226 13.0015 72.7796 13.8726 72.2937 14.6311C71.8196 15.3896 71.1559 15.9882 70.3026 16.4267C69.4492 16.8533 68.4715 17.0667 67.3692 17.0667ZM67.3692 13.9378C67.6655 13.9378 67.9322 13.8667 68.1692 13.7245C68.4063 13.5822 68.5959 13.3689 68.7381 13.0845C68.8803 12.7882 68.9515 12.4326 68.9515 12.0178C68.9515 11.5911 68.8803 11.2415 68.7381 10.9689C68.5959 10.6845 68.4063 10.4711 68.1692 10.3289C67.9322 10.1867 67.6655 10.1156 67.3692 10.1156C67.0729 10.1156 66.8063 10.1867 66.5692 10.3289C66.3322 10.4711 66.1426 10.6845 66.0003 10.9689C65.8581 11.2415 65.787 11.5911 65.787 12.0178C65.787 12.4326 65.8581 12.7882 66.0003 13.0845C66.1426 13.3689 66.3322 13.5822 66.5692 13.7245C66.8063 13.8667 67.0729 13.9378 67.3692 13.9378Z" fill="black"/>
<path d="M79.2223 20.5156C78.2623 20.5156 77.3615 20.4148 76.5201 20.2133C75.6786 20.0119 74.9556 19.7096 74.3512 19.3067L75.7023 16.5689C76.0815 16.8652 76.5615 17.0963 77.1423 17.2622C77.7349 17.44 78.2919 17.5289 78.8134 17.5289C79.643 17.5289 80.2356 17.3511 80.5912 16.9956C80.9467 16.6519 81.1245 16.1541 81.1245 15.5022V14.6845L81.3023 11.6622L81.3201 8.64001V7.16446H85.1423V14.9511C85.1423 16.8356 84.6208 18.2341 83.5778 19.1467C82.5349 20.0593 81.083 20.5156 79.2223 20.5156ZM78.4401 16.3556C77.6223 16.3556 76.8578 16.1659 76.1467 15.7867C75.4356 15.3956 74.8608 14.8504 74.4223 14.1511C73.9838 13.4519 73.7645 12.6222 73.7645 11.6622C73.7645 10.7022 73.9838 9.87261 74.4223 9.17335C74.8608 8.47409 75.4356 7.93483 76.1467 7.55557C76.8578 7.17631 77.6223 6.98668 78.4401 6.98668C79.2815 6.98668 79.969 7.15261 80.5023 7.48446C81.0475 7.81631 81.4504 8.33187 81.7112 9.03113C81.9719 9.71853 82.1023 10.5956 82.1023 11.6622C82.1023 12.7289 81.9719 13.6119 81.7112 14.3111C81.4504 14.9985 81.0475 15.5141 80.5023 15.8578C79.969 16.1896 79.2815 16.3556 78.4401 16.3556ZM79.5067 13.2267C79.8267 13.2267 80.1112 13.1615 80.3601 13.0311C80.609 12.9008 80.8045 12.7171 80.9467 12.48C81.089 12.243 81.1601 11.9704 81.1601 11.6622C81.1601 11.3422 81.089 11.0696 80.9467 10.8445C80.8045 10.6074 80.609 10.4296 80.3601 10.3111C80.1112 10.1808 79.8267 10.1156 79.5067 10.1156C79.1986 10.1156 78.9141 10.1808 78.6534 10.3111C78.4045 10.4296 78.203 10.6074 78.049 10.8445C77.9067 11.0696 77.8356 11.3422 77.8356 11.6622C77.8356 11.9704 77.9067 12.243 78.049 12.48C78.203 12.7171 78.4045 12.9008 78.6534 13.0311C78.9141 13.1615 79.1986 13.2267 79.5067 13.2267Z" fill="black"/>
<path d="M92.0567 17.0667C90.9545 17.0667 89.9767 16.8533 89.1234 16.4267C88.2819 15.9882 87.6182 15.3896 87.1323 14.6311C86.6464 13.8726 86.4034 13.0015 86.4034 12.0178C86.4034 11.0341 86.6464 10.163 87.1323 9.40446C87.6182 8.64594 88.2819 8.05335 89.1234 7.62668C89.9767 7.20001 90.9545 6.98668 92.0567 6.98668C93.159 6.98668 94.1367 7.20001 94.9901 7.62668C95.8434 8.05335 96.5071 8.64594 96.9812 9.40446C97.4671 10.163 97.7101 11.0341 97.7101 12.0178C97.7101 13.0015 97.4671 13.8726 96.9812 14.6311C96.5071 15.3896 95.8434 15.9882 94.9901 16.4267C94.1367 16.8533 93.159 17.0667 92.0567 17.0667ZM92.0567 13.9378C92.353 13.9378 92.6197 13.8667 92.8567 13.7245C93.0938 13.5822 93.2834 13.3689 93.4256 13.0845C93.5678 12.7882 93.639 12.4326 93.639 12.0178C93.639 11.5911 93.5678 11.2415 93.4256 10.9689C93.2834 10.6845 93.0938 10.4711 92.8567 10.3289C92.6197 10.1867 92.353 10.1156 92.0567 10.1156C91.7604 10.1156 91.4938 10.1867 91.2567 10.3289C91.0197 10.4711 90.8301 10.6845 90.6878 10.9689C90.5456 11.2415 90.4745 11.5911 90.4745 12.0178C90.4745 12.4326 90.5456 12.7882 90.6878 13.0845C90.8301 13.3689 91.0197 13.5822 91.2567 13.7245C91.4938 13.8667 91.7604 13.9378 92.0567 13.9378Z" fill="black"/>
<path d="M55.9526 34.8445C54.6133 34.8445 53.5703 34.5245 52.8237 33.8845C52.077 33.2326 51.7037 32.2371 51.7037 30.8978V22.7556H55.7215V30.8622C55.7215 31.1585 55.7985 31.3896 55.9526 31.5556C56.1185 31.7215 56.32 31.8045 56.557 31.8045C56.9007 31.8045 57.2029 31.7156 57.4637 31.5378L58.4237 34.3289C58.1155 34.5067 57.7422 34.6371 57.3037 34.72C56.877 34.803 56.4266 34.8445 55.9526 34.8445ZM50.3703 28.4089V25.4756H57.7126V28.4089H50.3703Z" fill="black"/>
<path d="M61.396 38.2934C60.8627 38.2934 60.3175 38.2104 59.7605 38.0445C59.2153 37.8904 58.7768 37.683 58.4449 37.4222L59.7783 34.6667C59.9797 34.8208 60.2049 34.9452 60.4538 35.04C60.7146 35.1348 60.9634 35.1822 61.2005 35.1822C61.556 35.1822 61.8286 35.1052 62.0183 34.9511C62.2079 34.8089 62.362 34.5896 62.4805 34.2934L62.8894 33.2622L63.1738 32.8711L66.2849 24.9422H70.0894L66.0894 34.8622C65.7338 35.7511 65.319 36.4445 64.8449 36.9422C64.3827 37.44 63.8612 37.7896 63.2805 37.9911C62.7116 38.1926 62.0834 38.2934 61.396 38.2934ZM62.3383 35.1111L58.1072 24.9422H62.2316L65.1472 32.5156L62.3383 35.1111Z" fill="black"/>
<path d="M77.1926 34.8445C76.3511 34.8445 75.6518 34.6667 75.0948 34.3111C74.5496 33.9437 74.1466 33.3926 73.8859 32.6578C73.6252 31.9111 73.4948 30.963 73.4948 29.8133C73.4948 28.64 73.6133 27.6859 73.8503 26.9511C74.0992 26.2045 74.4963 25.6533 75.0415 25.2978C75.5866 24.9422 76.3037 24.7645 77.1926 24.7645C78.0459 24.7645 78.8281 24.9719 79.5392 25.3867C80.2503 25.7896 80.8192 26.3704 81.2459 27.1289C81.6726 27.8756 81.8859 28.7704 81.8859 29.8133C81.8859 30.8563 81.6726 31.7571 81.2459 32.5156C80.8192 33.2622 80.2503 33.8371 79.5392 34.24C78.8281 34.643 78.0459 34.8445 77.1926 34.8445ZM70.7037 38.1156V24.9422H74.5259V26.2578L74.5437 29.8133L74.7215 33.3689V38.1156H70.7037ZM76.2326 31.7156C76.5289 31.7156 76.7955 31.6445 77.0326 31.5022C77.2696 31.36 77.4592 31.1467 77.6015 30.8622C77.7437 30.5778 77.8148 30.2282 77.8148 29.8133C77.8148 29.3867 77.7437 29.0311 77.6015 28.7467C77.4592 28.4622 77.2696 28.2489 77.0326 28.1067C76.7955 27.9645 76.5289 27.8933 76.2326 27.8933C75.9363 27.8933 75.6696 27.9645 75.4326 28.1067C75.1955 28.2489 75.0059 28.4622 74.8637 28.7467C74.7215 29.0311 74.6503 29.3867 74.6503 29.8133C74.6503 30.2282 74.7215 30.5778 74.8637 30.8622C75.0059 31.1467 75.1955 31.36 75.4326 31.5022C75.6696 31.6445 75.9363 31.7156 76.2326 31.7156Z" fill="black"/>
<path d="M88.5205 34.8445C87.3353 34.8445 86.2983 34.6252 85.4094 34.1867C84.5323 33.7482 83.8509 33.1496 83.3649 32.3911C82.879 31.6208 82.636 30.7556 82.636 29.7956C82.636 28.8119 82.8731 27.9408 83.3472 27.1822C83.8331 26.4237 84.4909 25.8311 85.3205 25.4045C86.162 24.9778 87.1042 24.7645 88.1472 24.7645C89.1072 24.7645 89.9901 24.9541 90.796 25.3333C91.6138 25.7126 92.2657 26.2756 92.7516 27.0222C93.2494 27.7689 93.4983 28.6933 93.4983 29.7956C93.4983 29.9378 93.4923 30.0978 93.4805 30.2756C93.4686 30.4415 93.4568 30.5956 93.4449 30.7378H85.9605V28.8H91.3116L89.8005 29.3156C89.8005 28.9363 89.7294 28.6163 89.5872 28.3556C89.4568 28.083 89.2731 27.8756 89.036 27.7333C88.799 27.5793 88.5146 27.5022 88.1827 27.5022C87.8509 27.5022 87.5605 27.5793 87.3116 27.7333C87.0746 27.8756 86.8909 28.083 86.7605 28.3556C86.6301 28.6163 86.5649 28.9363 86.5649 29.3156V29.92C86.5649 30.3348 86.6479 30.6904 86.8138 30.9867C86.9797 31.283 87.2168 31.5082 87.5249 31.6622C87.8331 31.8045 88.2064 31.8756 88.6449 31.8756C89.0953 31.8756 89.4627 31.8163 89.7472 31.6978C90.0434 31.5793 90.3516 31.4015 90.6716 31.1645L92.7694 33.28C92.2953 33.7896 91.7086 34.1808 91.0094 34.4533C90.322 34.7141 89.4923 34.8445 88.5205 34.8445Z" fill="black"/>
<path fill-rule="evenodd" clip-rule="evenodd" d="M40 0H0V40H40V0ZM28.1481 34.0741L20.7407 20.7407H35.5555L28.1481 7.40741L20.7407 20.7407L13.3333 7.40741L5.9259 20.7407H20.7407L13.3333 34.0741H28.1481Z" fill="black"/>
</svg>
